<?xml version="1.0" standalone="no"?>
<!DOCTYPE svg PUBLIC "-//W3C//DTD SVG 20010904//EN"
 "http://www.w3.org/TR/2001/REC-SVG-20010904/DTD/svg10.dtd">
<svg version="1.0" xmlns="http://www.w3.org/2000/svg"
 width="300.000000pt" height="300.000000pt" viewBox="0 0 300.000000 300.000000"
 preserveAspectRatio="xMidYMid meet">
<metadata>
Created by potrace 1.14, written by Peter Selinger 2001-2017
</metadata>
<g transform="translate(0.000000,300.000000) scale(0.100000,-0.100000)"
fill="#000000" stroke="none">
<path d="M470 2993 c-101 -17 -226 -82 -303 -156 -51 -50 -110 -144 -139 -220
l-23 -62 -2 -1030 c-2 -991 -1 -1033 17 -1104 49 -184 185 -330 368 -393 l67
-23 1040 0 1040 0 70 22 c173 54 314 195 368 368 l22 70 0 1040 0 1040 -23 67
c-59 170 -193 303 -361 361 l-66 22 -1025 1 c-564 1 -1036 -1 -1050 -3z"/>
</g>
</svg>
